<mxfile host="app.diagrams.net" agent="Mozilla/5.0 (Macintosh; Intel Mac OS X 10_15_7) AppleWebKit/537.36 (KHTML, like Gecko) Chrome/131.0.0.0 Safari/537.36" version="26.0.4">
  <diagram name="Page-1" id="W-Mqu0iKwK9ApH8cD1n-">
    <mxGraphModel dx="2364" dy="-1051" grid="0" gridSize="10" guides="1" tooltips="1" connect="1" arrows="1" fold="1" page="1" pageScale="1" pageWidth="850" pageHeight="1100" math="0" shadow="0">
      <root>
        <mxCell id="0" />
        <mxCell id="1" parent="0" />
        <mxCell id="NjGtnOn6j2J6z6Q3tP3R-1" value="User" style="rounded=0;whiteSpace=wrap;html=1;" parent="1" vertex="1">
          <mxGeometry x="127.12" y="3027.05" width="70" height="30" as="geometry" />
        </mxCell>
        <mxCell id="NjGtnOn6j2J6z6Q3tP3R-2" value="" style="endArrow=none;html=1;rounded=0;exitX=0.5;exitY=0;exitDx=0;exitDy=0;" parent="1" source="NjGtnOn6j2J6z6Q3tP3R-1" edge="1">
          <mxGeometry width="50" height="50" relative="1" as="geometry">
            <mxPoint x="177.12" y="2985.7799999999997" as="sourcePoint" />
            <mxPoint x="207.12" y="2955.7799999999997" as="targetPoint" />
          </mxGeometry>
        </mxCell>
        <mxCell id="NjGtnOn6j2J6z6Q3tP3R-3" value="User_id" style="ellipse;whiteSpace=wrap;html=1;rotation=-45;" parent="1" vertex="1">
          <mxGeometry x="192.12" y="2928.11" width="60" height="24.14" as="geometry" />
        </mxCell>
        <mxCell id="NjGtnOn6j2J6z6Q3tP3R-4" value="" style="endArrow=none;html=1;rounded=0;exitX=0.5;exitY=0;exitDx=0;exitDy=0;entryX=0;entryY=0.5;entryDx=0;entryDy=0;" parent="1" source="NjGtnOn6j2J6z6Q3tP3R-1" target="NjGtnOn6j2J6z6Q3tP3R-5" edge="1">
          <mxGeometry width="50" height="50" relative="1" as="geometry">
            <mxPoint x="162.12" y="2985.7799999999997" as="sourcePoint" />
            <mxPoint x="167.12" y="2935.7799999999997" as="targetPoint" />
          </mxGeometry>
        </mxCell>
        <mxCell id="NjGtnOn6j2J6z6Q3tP3R-5" value="User name" style="ellipse;whiteSpace=wrap;html=1;rotation=-45;" parent="1" vertex="1">
          <mxGeometry x="162.33" y="2908.38" width="68.54" height="20.49" as="geometry" />
        </mxCell>
        <mxCell id="NjGtnOn6j2J6z6Q3tP3R-6" value="" style="endArrow=none;html=1;rounded=0;entryX=0;entryY=1;entryDx=0;entryDy=0;exitX=0.5;exitY=0;exitDx=0;exitDy=0;" parent="1" source="NjGtnOn6j2J6z6Q3tP3R-1" target="NjGtnOn6j2J6z6Q3tP3R-7" edge="1">
          <mxGeometry width="50" height="50" relative="1" as="geometry">
            <mxPoint x="155.4699999999999" y="2986.8" as="sourcePoint" />
            <mxPoint x="167.12" y="2955.7799999999997" as="targetPoint" />
          </mxGeometry>
        </mxCell>
        <mxCell id="NjGtnOn6j2J6z6Q3tP3R-7" value="email" style="ellipse;whiteSpace=wrap;html=1;rotation=-75;" parent="1" vertex="1">
          <mxGeometry x="113.41" y="2882.3500000000004" width="60" height="18.46" as="geometry" />
        </mxCell>
        <mxCell id="NjGtnOn6j2J6z6Q3tP3R-8" value="" style="endArrow=none;html=1;rounded=0;entryX=1;entryY=0;entryDx=0;entryDy=0;exitX=0.5;exitY=0;exitDx=0;exitDy=0;" parent="1" source="NjGtnOn6j2J6z6Q3tP3R-1" target="NjGtnOn6j2J6z6Q3tP3R-9" edge="1">
          <mxGeometry width="50" height="50" relative="1" as="geometry">
            <mxPoint x="152.12" y="2986.19" as="sourcePoint" />
            <mxPoint x="107.12" y="2949.92" as="targetPoint" />
          </mxGeometry>
        </mxCell>
        <mxCell id="NjGtnOn6j2J6z6Q3tP3R-9" value="Password" style="ellipse;whiteSpace=wrap;html=1;direction=west;rotation=-100;" parent="1" vertex="1">
          <mxGeometry x="79.62" y="2880" width="60" height="24.45" as="geometry" />
        </mxCell>
        <mxCell id="NjGtnOn6j2J6z6Q3tP3R-10" value="role" style="ellipse;whiteSpace=wrap;html=1;rotation=-105;" parent="1" vertex="1">
          <mxGeometry x="47.99" y="2889.8199999999997" width="60" height="22.42" as="geometry" />
        </mxCell>
        <mxCell id="NjGtnOn6j2J6z6Q3tP3R-11" value="" style="endArrow=none;html=1;rounded=0;exitX=0.5;exitY=0;exitDx=0;exitDy=0;entryX=0;entryY=1;entryDx=0;entryDy=0;" parent="1" source="NjGtnOn6j2J6z6Q3tP3R-1" target="NjGtnOn6j2J6z6Q3tP3R-10" edge="1">
          <mxGeometry width="50" height="50" relative="1" as="geometry">
            <mxPoint x="144.62" y="2985.7799999999997" as="sourcePoint" />
            <mxPoint x="87.12" y="2969.41" as="targetPoint" />
          </mxGeometry>
        </mxCell>
        <mxCell id="NjGtnOn6j2J6z6Q3tP3R-15" value="" style="endArrow=none;html=1;rounded=0;exitX=0.75;exitY=0;exitDx=0;exitDy=0;entryX=0.037;entryY=0.32;entryDx=0;entryDy=0;entryPerimeter=0;" parent="1" source="NjGtnOn6j2J6z6Q3tP3R-32" target="NjGtnOn6j2J6z6Q3tP3R-47" edge="1">
          <mxGeometry width="50" height="50" relative="1" as="geometry">
            <mxPoint x="492.11999999999995" y="3027.05" as="sourcePoint" />
            <mxPoint x="492.12000000000046" y="2918.4500000000044" as="targetPoint" />
          </mxGeometry>
        </mxCell>
        <mxCell id="NjGtnOn6j2J6z6Q3tP3R-17" value="" style="endArrow=none;html=1;rounded=0;entryX=0;entryY=0.5;entryDx=0;entryDy=0;exitX=0.75;exitY=0;exitDx=0;exitDy=0;" parent="1" source="NjGtnOn6j2J6z6Q3tP3R-32" target="NjGtnOn6j2J6z6Q3tP3R-18" edge="1">
          <mxGeometry width="50" height="50" relative="1" as="geometry">
            <mxPoint x="492.11999999999995" y="3027.05" as="sourcePoint" />
            <mxPoint x="412.11999999999995" y="2982.4000000000005" as="targetPoint" />
          </mxGeometry>
        </mxCell>
        <mxCell id="NjGtnOn6j2J6z6Q3tP3R-18" value="company&lt;div&gt;name&lt;/div&gt;" style="ellipse;whiteSpace=wrap;html=1;rotation=-60;" parent="1" vertex="1">
          <mxGeometry x="297.11999999999995" y="2935.9000000000005" width="70" height="38.79" as="geometry" />
        </mxCell>
        <mxCell id="NjGtnOn6j2J6z6Q3tP3R-19" value="" style="endArrow=none;html=1;rounded=0;exitX=1;exitY=0.5;exitDx=0;exitDy=0;" parent="1" edge="1">
          <mxGeometry width="50" height="50" relative="1" as="geometry">
            <mxPoint x="510.53000000000003" y="3127.6600000000003" as="sourcePoint" />
            <mxPoint x="697.12" y="3127" as="targetPoint" />
          </mxGeometry>
        </mxCell>
        <mxCell id="NjGtnOn6j2J6z6Q3tP3R-20" value="jobs" style="rounded=0;whiteSpace=wrap;html=1;" parent="1" vertex="1">
          <mxGeometry x="27.119999999999997" y="3618.95" width="70" height="30" as="geometry" />
        </mxCell>
        <mxCell id="NjGtnOn6j2J6z6Q3tP3R-21" value="" style="endArrow=none;html=1;rounded=0;entryX=0;entryY=0.5;entryDx=0;entryDy=0;exitX=0.5;exitY=0;exitDx=0;exitDy=0;" parent="1" source="NjGtnOn6j2J6z6Q3tP3R-20" target="NjGtnOn6j2J6z6Q3tP3R-22" edge="1">
          <mxGeometry width="50" height="50" relative="1" as="geometry">
            <mxPoint x="77.12" y="3618.95" as="sourcePoint" />
            <mxPoint x="107.12" y="3588.95" as="targetPoint" />
          </mxGeometry>
        </mxCell>
        <mxCell id="NjGtnOn6j2J6z6Q3tP3R-22" value="job_tittle" style="ellipse;whiteSpace=wrap;html=1;rotation=-75;" parent="1" vertex="1">
          <mxGeometry x="95.59" y="3468.23" width="68.41" height="20" as="geometry" />
        </mxCell>
        <mxCell id="NjGtnOn6j2J6z6Q3tP3R-23" value="" style="endArrow=none;html=1;rounded=0;exitX=0.5;exitY=0;exitDx=0;exitDy=0;entryX=0;entryY=0.5;entryDx=0;entryDy=0;" parent="1" source="NjGtnOn6j2J6z6Q3tP3R-20" target="NjGtnOn6j2J6z6Q3tP3R-24" edge="1">
          <mxGeometry width="50" height="50" relative="1" as="geometry">
            <mxPoint x="67.12" y="3608.95" as="sourcePoint" />
            <mxPoint x="67.12" y="3568.95" as="targetPoint" />
          </mxGeometry>
        </mxCell>
        <mxCell id="NjGtnOn6j2J6z6Q3tP3R-24" value="job_type_id" style="ellipse;whiteSpace=wrap;html=1;rotation=-85;" parent="1" vertex="1">
          <mxGeometry x="30.32" y="3459.37" width="77.67" height="25.38" as="geometry" />
        </mxCell>
        <mxCell id="NjGtnOn6j2J6z6Q3tP3R-25" value="" style="endArrow=none;html=1;rounded=0;exitX=0.25;exitY=0;exitDx=0;exitDy=0;entryX=1;entryY=0.5;entryDx=0;entryDy=0;" parent="1" source="NjGtnOn6j2J6z6Q3tP3R-20" target="NjGtnOn6j2J6z6Q3tP3R-26" edge="1">
          <mxGeometry width="50" height="50" relative="1" as="geometry">
            <mxPoint x="97.12" y="3667.38" as="sourcePoint" />
            <mxPoint x="16.119999999999997" y="3537.19" as="targetPoint" />
          </mxGeometry>
        </mxCell>
        <mxCell id="NjGtnOn6j2J6z6Q3tP3R-26" value="job description" style="ellipse;whiteSpace=wrap;html=1;rotation=90;" parent="1" vertex="1">
          <mxGeometry x="-21.130000000000003" y="3455.8500000000004" width="94.89" height="24.14" as="geometry" />
        </mxCell>
        <mxCell id="NjGtnOn6j2J6z6Q3tP3R-27" value="" style="endArrow=none;html=1;rounded=0;exitX=0.25;exitY=0;exitDx=0;exitDy=0;entryX=0;entryY=0.5;entryDx=0;entryDy=0;" parent="1" source="NjGtnOn6j2J6z6Q3tP3R-20" target="NjGtnOn6j2J6z6Q3tP3R-28" edge="1">
          <mxGeometry width="50" height="50" relative="1" as="geometry">
            <mxPoint x="-42.88" y="3637.74" as="sourcePoint" />
            <mxPoint x="17.120000000000005" y="3590.16" as="targetPoint" />
          </mxGeometry>
        </mxCell>
        <mxCell id="NjGtnOn6j2J6z6Q3tP3R-28" value="salary" style="ellipse;whiteSpace=wrap;html=1;direction=west;rotation=75;" parent="1" vertex="1">
          <mxGeometry x="-39.50000000000001" y="3462.85" width="60" height="15.99" as="geometry" />
        </mxCell>
        <mxCell id="NjGtnOn6j2J6z6Q3tP3R-29" value="" style="endArrow=none;html=1;rounded=0;entryX=0.25;entryY=0;entryDx=0;entryDy=0;exitX=0.584;exitY=0.972;exitDx=0;exitDy=0;exitPerimeter=0;" parent="1" source="NjGtnOn6j2J6z6Q3tP3R-38" target="NjGtnOn6j2J6z6Q3tP3R-20" edge="1">
          <mxGeometry width="50" height="50" relative="1" as="geometry">
            <mxPoint x="44.43999999999999" y="3459.19" as="sourcePoint" />
            <mxPoint x="49.87" y="3618.9500000000003" as="targetPoint" />
          </mxGeometry>
        </mxCell>
        <mxCell id="NjGtnOn6j2J6z6Q3tP3R-30" value="" style="endArrow=none;html=1;rounded=0;fontSize=12;startSize=8;endSize=8;curved=1;" parent="1" source="NjGtnOn6j2J6z6Q3tP3R-35" edge="1">
          <mxGeometry width="50" height="50" relative="1" as="geometry">
            <mxPoint x="97.12" y="3107.05" as="sourcePoint" />
            <mxPoint x="147.12" y="3057.05" as="targetPoint" />
          </mxGeometry>
        </mxCell>
        <mxCell id="NjGtnOn6j2J6z6Q3tP3R-31" value="Job seeker" style="rounded=0;whiteSpace=wrap;html=1;" parent="1" vertex="1">
          <mxGeometry x="57.12" y="3145.09" width="70" height="30" as="geometry" />
        </mxCell>
        <mxCell id="NjGtnOn6j2J6z6Q3tP3R-32" value="Compay" style="rounded=0;whiteSpace=wrap;html=1;" parent="1" vertex="1">
          <mxGeometry x="157.12" y="3111.19" width="80" height="32.93" as="geometry" />
        </mxCell>
        <mxCell id="NjGtnOn6j2J6z6Q3tP3R-33" value="" style="endArrow=none;html=1;rounded=0;fontSize=12;startSize=8;endSize=8;curved=1;entryX=0.5;entryY=1;entryDx=0;entryDy=0;" parent="1" source="NjGtnOn6j2J6z6Q3tP3R-37" target="NjGtnOn6j2J6z6Q3tP3R-1" edge="1">
          <mxGeometry width="50" height="50" relative="1" as="geometry">
            <mxPoint x="197.12" y="3108.26" as="sourcePoint" />
            <mxPoint x="167.12" y="3042.4" as="targetPoint" />
          </mxGeometry>
        </mxCell>
        <mxCell id="NjGtnOn6j2J6z6Q3tP3R-34" value="" style="endArrow=none;html=1;rounded=0;fontSize=12;startSize=8;endSize=8;curved=1;" parent="1" target="NjGtnOn6j2J6z6Q3tP3R-35" edge="1">
          <mxGeometry width="50" height="50" relative="1" as="geometry">
            <mxPoint x="92.12" y="3133.88" as="sourcePoint" />
            <mxPoint x="142.12" y="3083.88" as="targetPoint" />
          </mxGeometry>
        </mxCell>
        <mxCell id="NjGtnOn6j2J6z6Q3tP3R-35" value="" style="ellipse;whiteSpace=wrap;html=1;aspect=fixed;" parent="1" vertex="1">
          <mxGeometry x="78.22" y="3131.19" width="13.9" height="13.9" as="geometry" />
        </mxCell>
        <mxCell id="NjGtnOn6j2J6z6Q3tP3R-36" value="" style="endArrow=none;html=1;rounded=0;fontSize=12;startSize=8;endSize=8;curved=1;entryX=0.5;entryY=1;entryDx=0;entryDy=0;" parent="1" target="NjGtnOn6j2J6z6Q3tP3R-37" edge="1">
          <mxGeometry width="50" height="50" relative="1" as="geometry">
            <mxPoint x="187.12" y="3101.19" as="sourcePoint" />
            <mxPoint x="152.12" y="3050.19" as="targetPoint" />
          </mxGeometry>
        </mxCell>
        <mxCell id="NjGtnOn6j2J6z6Q3tP3R-37" value="" style="ellipse;whiteSpace=wrap;html=1;aspect=fixed;" parent="1" vertex="1">
          <mxGeometry x="184.45000000000002" y="3095.84" width="15.35" height="15.35" as="geometry" />
        </mxCell>
        <mxCell id="NjGtnOn6j2J6z6Q3tP3R-38" value="job_applications" style="shape=ext;margin=3;double=1;whiteSpace=wrap;html=1;align=center;" parent="1" vertex="1">
          <mxGeometry x="-11.779999999999994" y="3348.33" width="100" height="40" as="geometry" />
        </mxCell>
        <mxCell id="NjGtnOn6j2J6z6Q3tP3R-39" value="" style="endArrow=none;html=1;rounded=0;entryX=0.5;entryY=0;entryDx=0;entryDy=0;exitX=0.988;exitY=0.126;exitDx=0;exitDy=0;exitPerimeter=0;" parent="1" source="NjGtnOn6j2J6z6Q3tP3R-85" target="NjGtnOn6j2J6z6Q3tP3R-38" edge="1">
          <mxGeometry width="50" height="50" relative="1" as="geometry">
            <mxPoint x="37.12" y="3151.19" as="sourcePoint" />
            <mxPoint x="37.12" y="3270.19" as="targetPoint" />
          </mxGeometry>
        </mxCell>
        <mxCell id="NjGtnOn6j2J6z6Q3tP3R-40" value="" style="endArrow=none;html=1;rounded=0;fontSize=12;startSize=8;endSize=8;curved=1;exitX=0.476;exitY=-0.001;exitDx=0;exitDy=0;exitPerimeter=0;entryX=1;entryY=0.5;entryDx=0;entryDy=0;" parent="1" source="NjGtnOn6j2J6z6Q3tP3R-38" target="NjGtnOn6j2J6z6Q3tP3R-41" edge="1">
          <mxGeometry width="50" height="50" relative="1" as="geometry">
            <mxPoint x="14.150000000000013" y="3348.33" as="sourcePoint" />
            <mxPoint x="5.539999999999999" y="3328.33" as="targetPoint" />
          </mxGeometry>
        </mxCell>
        <mxCell id="NjGtnOn6j2J6z6Q3tP3R-41" value="application_date" style="ellipse;whiteSpace=wrap;html=1;rotation=60;" parent="1" vertex="1">
          <mxGeometry x="-81.18" y="3256.25" width="103.3" height="22.42" as="geometry" />
        </mxCell>
        <mxCell id="NjGtnOn6j2J6z6Q3tP3R-42" value="" style="endArrow=none;html=1;rounded=0;fontSize=12;startSize=8;endSize=8;curved=1;exitX=0.472;exitY=-0.012;exitDx=0;exitDy=0;exitPerimeter=0;" parent="1" source="NjGtnOn6j2J6z6Q3tP3R-38" edge="1">
          <mxGeometry width="50" height="50" relative="1" as="geometry">
            <mxPoint x="15.54" y="3348.33" as="sourcePoint" />
            <mxPoint x="-42.27" y="3318.33" as="targetPoint" />
          </mxGeometry>
        </mxCell>
        <mxCell id="NjGtnOn6j2J6z6Q3tP3R-43" value="application_id" style="ellipse;whiteSpace=wrap;html=1;direction=west;rotation=45;" parent="1" vertex="1">
          <mxGeometry x="-117.19999999999999" y="3274.87" width="91.1" height="26.79" as="geometry" />
        </mxCell>
        <mxCell id="NjGtnOn6j2J6z6Q3tP3R-44" value="" style="endArrow=none;html=1;rounded=0;fontSize=12;startSize=8;endSize=8;curved=1;exitX=0.434;exitY=0.007;exitDx=0;exitDy=0;exitPerimeter=0;" parent="1" source="NjGtnOn6j2J6z6Q3tP3R-38" edge="1">
          <mxGeometry width="50" height="50" relative="1" as="geometry">
            <mxPoint x="-11.780000000000037" y="3348.33" as="sourcePoint" />
            <mxPoint x="-54.46" y="3338.33" as="targetPoint" />
          </mxGeometry>
        </mxCell>
        <mxCell id="NjGtnOn6j2J6z6Q3tP3R-45" value="status" style="ellipse;whiteSpace=wrap;html=1;direction=west;rotation=15;" parent="1" vertex="1">
          <mxGeometry x="-111.24000000000001" y="3315.4700000000003" width="60" height="25.79" as="geometry" />
        </mxCell>
        <mxCell id="NjGtnOn6j2J6z6Q3tP3R-46" value="" style="endArrow=none;html=1;rounded=0;fontSize=12;startSize=8;endSize=8;curved=1;" parent="1" edge="1">
          <mxGeometry width="50" height="50" relative="1" as="geometry">
            <mxPoint x="237.12" y="3127.19" as="sourcePoint" />
            <mxPoint x="517.12" y="3128" as="targetPoint" />
          </mxGeometry>
        </mxCell>
        <mxCell id="NjGtnOn6j2J6z6Q3tP3R-47" value="company&lt;div&gt;address&lt;/div&gt;" style="ellipse;whiteSpace=wrap;html=1;rotation=-45;" parent="1" vertex="1">
          <mxGeometry x="300.86999999999995" y="3057.05" width="70" height="38.79" as="geometry" />
        </mxCell>
        <mxCell id="NjGtnOn6j2J6z6Q3tP3R-48" value="" style="endArrow=none;html=1;rounded=0;entryX=0;entryY=0.5;entryDx=0;entryDy=0;" parent="1" target="NjGtnOn6j2J6z6Q3tP3R-49" edge="1">
          <mxGeometry width="50" height="50" relative="1" as="geometry">
            <mxPoint x="217.12" y="3110" as="sourcePoint" />
            <mxPoint x="342.11999999999995" y="2967.05" as="targetPoint" />
          </mxGeometry>
        </mxCell>
        <mxCell id="NjGtnOn6j2J6z6Q3tP3R-49" value="website" style="ellipse;whiteSpace=wrap;html=1;direction=west;rotation=105;" parent="1" vertex="1">
          <mxGeometry x="252.11999999999995" y="2952.25" width="60" height="30" as="geometry" />
        </mxCell>
        <mxCell id="NjGtnOn6j2J6z6Q3tP3R-50" value="" style="endArrow=none;html=1;rounded=0;exitX=1;exitY=0.75;exitDx=0;exitDy=0;entryX=0.5;entryY=0;entryDx=0;entryDy=0;" parent="1" source="NjGtnOn6j2J6z6Q3tP3R-31" target="NjGtnOn6j2J6z6Q3tP3R-71" edge="1">
          <mxGeometry width="50" height="50" relative="1" as="geometry">
            <mxPoint x="127.12" y="3159.59" as="sourcePoint" />
            <mxPoint x="197.12" y="3221.19" as="targetPoint" />
          </mxGeometry>
        </mxCell>
        <mxCell id="NjGtnOn6j2J6z6Q3tP3R-51" value="posts" style="rhombus;whiteSpace=wrap;html=1;rotation=90;" parent="1" vertex="1">
          <mxGeometry x="657.12" y="3291.19" width="80" height="40" as="geometry" />
        </mxCell>
        <mxCell id="NjGtnOn6j2J6z6Q3tP3R-52" value="" style="endArrow=none;html=1;rounded=0;" parent="1" edge="1">
          <mxGeometry width="50" height="50" relative="1" as="geometry">
            <mxPoint x="697.12" y="3130" as="sourcePoint" />
            <mxPoint x="697.82" y="3271.86" as="targetPoint" />
          </mxGeometry>
        </mxCell>
        <mxCell id="NjGtnOn6j2J6z6Q3tP3R-53" value="" style="endArrow=none;html=1;rounded=0;" parent="1" edge="1">
          <mxGeometry width="50" height="50" relative="1" as="geometry">
            <mxPoint x="97.12" y="3627.26" as="sourcePoint" />
            <mxPoint x="697.12" y="3627.19" as="targetPoint" />
          </mxGeometry>
        </mxCell>
        <mxCell id="NjGtnOn6j2J6z6Q3tP3R-54" value="Category" style="rounded=0;whiteSpace=wrap;html=1;" parent="1" vertex="1">
          <mxGeometry x="-2.8800000000000026" y="4002.6400000000003" width="90" height="30" as="geometry" />
        </mxCell>
        <mxCell id="NjGtnOn6j2J6z6Q3tP3R-55" value="" style="endArrow=none;html=1;rounded=0;entryX=0;entryY=1;entryDx=0;entryDy=0;exitX=0.5;exitY=0;exitDx=0;exitDy=0;" parent="1" source="NjGtnOn6j2J6z6Q3tP3R-54" edge="1">
          <mxGeometry width="50" height="50" relative="1" as="geometry">
            <mxPoint x="37.12" y="3996.7799999999997" as="sourcePoint" />
            <mxPoint x="11.119999999999997" y="3933.74" as="targetPoint" />
          </mxGeometry>
        </mxCell>
        <mxCell id="NjGtnOn6j2J6z6Q3tP3R-56" value="" style="endArrow=none;html=1;rounded=0;exitX=0.5;exitY=0;exitDx=0;exitDy=0;entryX=0;entryY=0.5;entryDx=0;entryDy=0;" parent="1" target="NjGtnOn6j2J6z6Q3tP3R-57" edge="1">
          <mxGeometry width="50" height="50" relative="1" as="geometry">
            <mxPoint x="39.19000000000005" y="4002.64" as="sourcePoint" />
            <mxPoint x="-32.88" y="3957.29" as="targetPoint" />
          </mxGeometry>
        </mxCell>
        <mxCell id="NjGtnOn6j2J6z6Q3tP3R-57" value="Category id" style="ellipse;whiteSpace=wrap;html=1;direction=west;rotation=45;" parent="1" vertex="1">
          <mxGeometry x="-76.03" y="3905.6" width="60" height="30" as="geometry" />
        </mxCell>
        <mxCell id="NjGtnOn6j2J6z6Q3tP3R-58" value="" style="endArrow=none;html=1;rounded=0;exitX=0.37;exitY=0.986;exitDx=0;exitDy=0;exitPerimeter=0;" parent="1" source="NjGtnOn6j2J6z6Q3tP3R-20" edge="1">
          <mxGeometry width="50" height="50" relative="1" as="geometry">
            <mxPoint x="52.12" y="3787.2599999999998" as="sourcePoint" />
            <mxPoint x="52.12" y="3855.5699999999997" as="targetPoint" />
          </mxGeometry>
        </mxCell>
        <mxCell id="NjGtnOn6j2J6z6Q3tP3R-59" value="contains" style="rhombus;whiteSpace=wrap;html=1;rotation=-90;" parent="1" vertex="1">
          <mxGeometry x="20.5" y="3858.95" width="61.75" height="40" as="geometry" />
        </mxCell>
        <mxCell id="NjGtnOn6j2J6z6Q3tP3R-60" value="" style="endArrow=none;html=1;rounded=0;exitX=0.069;exitY=0.519;exitDx=0;exitDy=0;exitPerimeter=0;" parent="1" source="NjGtnOn6j2J6z6Q3tP3R-59" edge="1">
          <mxGeometry width="50" height="50" relative="1" as="geometry">
            <mxPoint x="47.12" y="3915.5699999999997" as="sourcePoint" />
            <mxPoint x="52.12" y="4005.5699999999997" as="targetPoint" />
          </mxGeometry>
        </mxCell>
        <mxCell id="NjGtnOn6j2J6z6Q3tP3R-61" value="Category name" style="ellipse;whiteSpace=wrap;html=1;direction=west;rotation=75;" parent="1" vertex="1">
          <mxGeometry x="-27.880000000000003" y="3895.5699999999997" width="60" height="30" as="geometry" />
        </mxCell>
        <mxCell id="NjGtnOn6j2J6z6Q3tP3R-62" value="job types" style="rounded=0;whiteSpace=wrap;html=1;" parent="1" vertex="1">
          <mxGeometry x="472.12" y="3905.6000000000004" width="90" height="30" as="geometry" />
        </mxCell>
        <mxCell id="NjGtnOn6j2J6z6Q3tP3R-63" value="" style="endArrow=none;html=1;rounded=0;entryX=0;entryY=0.5;entryDx=0;entryDy=0;exitX=0.5;exitY=0;exitDx=0;exitDy=0;" parent="1" source="NjGtnOn6j2J6z6Q3tP3R-62" target="NjGtnOn6j2J6z6Q3tP3R-68" edge="1">
          <mxGeometry width="50" height="50" relative="1" as="geometry">
            <mxPoint x="512.12" y="3899.7400000000002" as="sourcePoint" />
            <mxPoint x="486.12" y="3836.7" as="targetPoint" />
          </mxGeometry>
        </mxCell>
        <mxCell id="NjGtnOn6j2J6z6Q3tP3R-64" value="" style="endArrow=none;html=1;rounded=0;exitX=0.5;exitY=0;exitDx=0;exitDy=0;entryX=0;entryY=0.5;entryDx=0;entryDy=0;" parent="1" target="NjGtnOn6j2J6z6Q3tP3R-65" edge="1">
          <mxGeometry width="50" height="50" relative="1" as="geometry">
            <mxPoint x="514.19" y="3905.6000000000004" as="sourcePoint" />
            <mxPoint x="442.12" y="3860.25" as="targetPoint" />
          </mxGeometry>
        </mxCell>
        <mxCell id="NjGtnOn6j2J6z6Q3tP3R-65" value="type name" style="ellipse;whiteSpace=wrap;html=1;direction=west;rotation=45;" parent="1" vertex="1">
          <mxGeometry x="392.12" y="3809.3700000000003" width="60" height="30" as="geometry" />
        </mxCell>
        <mxCell id="NjGtnOn6j2J6z6Q3tP3R-66" value="&lt;div&gt;categorised&lt;/div&gt;&lt;div&gt;as&lt;/div&gt;" style="rhombus;whiteSpace=wrap;html=1;rotation=-90;" parent="1" vertex="1">
          <mxGeometry x="476.93000000000006" y="3741.19" width="98.3" height="64.12" as="geometry" />
        </mxCell>
        <mxCell id="NjGtnOn6j2J6z6Q3tP3R-67" value="" style="endArrow=none;html=1;rounded=0;" parent="1" edge="1">
          <mxGeometry width="50" height="50" relative="1" as="geometry">
            <mxPoint x="527.12" y="3821.91" as="sourcePoint" />
            <mxPoint x="527.12" y="3908.53" as="targetPoint" />
          </mxGeometry>
        </mxCell>
        <mxCell id="NjGtnOn6j2J6z6Q3tP3R-68" value="job_type_id" style="ellipse;whiteSpace=wrap;html=1;direction=west;rotation=60;" parent="1" vertex="1">
          <mxGeometry x="435.90999999999997" y="3798.5299999999997" width="70" height="30" as="geometry" />
        </mxCell>
        <mxCell id="NjGtnOn6j2J6z6Q3tP3R-69" value="" style="endArrow=none;html=1;rounded=0;" parent="1" edge="1">
          <mxGeometry width="50" height="50" relative="1" as="geometry">
            <mxPoint x="97.12" y="3637.26" as="sourcePoint" />
            <mxPoint x="307.12" y="3637.26" as="targetPoint" />
          </mxGeometry>
        </mxCell>
        <mxCell id="NjGtnOn6j2J6z6Q3tP3R-70" value="" style="endArrow=none;html=1;rounded=0;entryX=1;entryY=0.5;entryDx=0;entryDy=0;" parent="1" target="NjGtnOn6j2J6z6Q3tP3R-66" edge="1">
          <mxGeometry width="50" height="50" relative="1" as="geometry">
            <mxPoint x="307.12" y="3637.26" as="sourcePoint" />
            <mxPoint x="307.12" y="3667.26" as="targetPoint" />
          </mxGeometry>
        </mxCell>
        <mxCell id="NjGtnOn6j2J6z6Q3tP3R-71" value="saved jobs" style="shape=ext;margin=3;double=1;whiteSpace=wrap;html=1;align=center;" parent="1" vertex="1">
          <mxGeometry x="400.37" y="3367.69" width="100" height="40" as="geometry" />
        </mxCell>
        <mxCell id="NjGtnOn6j2J6z6Q3tP3R-72" value="" style="endArrow=none;html=1;rounded=0;entryX=0.75;entryY=1;entryDx=0;entryDy=0;" parent="1" target="NjGtnOn6j2J6z6Q3tP3R-71" edge="1">
          <mxGeometry width="50" height="50" relative="1" as="geometry">
            <mxPoint x="97.12" y="3627.26" as="sourcePoint" />
            <mxPoint x="297.12" y="3457.26" as="targetPoint" />
          </mxGeometry>
        </mxCell>
        <mxCell id="NjGtnOn6j2J6z6Q3tP3R-73" value="" style="endArrow=none;html=1;rounded=0;exitX=0.5;exitY=0;exitDx=0;exitDy=0;" parent="1" source="NjGtnOn6j2J6z6Q3tP3R-71" edge="1">
          <mxGeometry width="50" height="50" relative="1" as="geometry">
            <mxPoint x="423.12" y="3332.19" as="sourcePoint" />
            <mxPoint x="452.82" y="3302.52" as="targetPoint" />
          </mxGeometry>
        </mxCell>
        <mxCell id="NjGtnOn6j2J6z6Q3tP3R-74" value="date_saved" style="ellipse;whiteSpace=wrap;html=1;rotation=-45;" parent="1" vertex="1">
          <mxGeometry x="438.81" y="3265.3900000000003" width="70" height="27.46" as="geometry" />
        </mxCell>
        <mxCell id="NjGtnOn6j2J6z6Q3tP3R-75" value="" style="endArrow=none;html=1;rounded=0;exitX=0.5;exitY=0;exitDx=0;exitDy=0;" parent="1" source="NjGtnOn6j2J6z6Q3tP3R-71" edge="1">
          <mxGeometry width="50" height="50" relative="1" as="geometry">
            <mxPoint x="417.12" y="3332.19" as="sourcePoint" />
            <mxPoint x="422.82" y="3282.38" as="targetPoint" />
          </mxGeometry>
        </mxCell>
        <mxCell id="NjGtnOn6j2J6z6Q3tP3R-76" value="user id" style="ellipse;whiteSpace=wrap;html=1;rotation=-60;" parent="1" vertex="1">
          <mxGeometry x="400.37" y="3242.95" width="67.59" height="30.35" as="geometry" />
        </mxCell>
        <mxCell id="NjGtnOn6j2J6z6Q3tP3R-77" value="1" style="text;html=1;align=center;verticalAlign=middle;resizable=0;points=[];autosize=1;strokeColor=none;fillColor=none;" parent="1" vertex="1">
          <mxGeometry x="230.87" y="3119.19" width="30" height="30" as="geometry" />
        </mxCell>
        <mxCell id="NjGtnOn6j2J6z6Q3tP3R-80" value="N" style="text;html=1;align=center;verticalAlign=middle;resizable=0;points=[];autosize=1;strokeColor=none;fillColor=none;" parent="1" vertex="1">
          <mxGeometry x="112.12" y="3605.26" width="30" height="30" as="geometry" />
        </mxCell>
        <mxCell id="NjGtnOn6j2J6z6Q3tP3R-81" value="N" style="text;html=1;align=center;verticalAlign=middle;resizable=0;points=[];autosize=1;strokeColor=none;fillColor=none;" parent="1" vertex="1">
          <mxGeometry x="112.12" y="3635.26" width="30" height="30" as="geometry" />
        </mxCell>
        <mxCell id="NjGtnOn6j2J6z6Q3tP3R-82" value="1" style="text;html=1;align=center;verticalAlign=middle;resizable=0;points=[];autosize=1;strokeColor=none;fillColor=none;" parent="1" vertex="1">
          <mxGeometry x="527.12" y="3869.91" width="30" height="30" as="geometry" />
        </mxCell>
        <mxCell id="NjGtnOn6j2J6z6Q3tP3R-83" value="N" style="text;html=1;align=center;verticalAlign=middle;resizable=0;points=[];autosize=1;strokeColor=none;fillColor=none;" parent="1" vertex="1">
          <mxGeometry x="49.589999999999996" y="3653.95" width="30" height="30" as="geometry" />
        </mxCell>
        <mxCell id="NjGtnOn6j2J6z6Q3tP3R-84" value="1" style="text;html=1;align=center;verticalAlign=middle;resizable=0;points=[];autosize=1;strokeColor=none;fillColor=none;" parent="1" vertex="1">
          <mxGeometry x="52.12" y="3973.5699999999997" width="30" height="30" as="geometry" />
        </mxCell>
        <mxCell id="NjGtnOn6j2J6z6Q3tP3R-85" value="N" style="text;html=1;align=center;verticalAlign=middle;resizable=0;points=[];autosize=1;strokeColor=none;fillColor=none;" parent="1" vertex="1">
          <mxGeometry x="7.119999999999997" y="3159.19" width="30" height="30" as="geometry" />
        </mxCell>
        <mxCell id="NjGtnOn6j2J6z6Q3tP3R-86" value="N" style="text;html=1;align=center;verticalAlign=middle;resizable=0;points=[];autosize=1;strokeColor=none;fillColor=none;" parent="1" vertex="1">
          <mxGeometry x="37.12" y="3555.26" width="30" height="30" as="geometry" />
        </mxCell>
        <mxCell id="NjGtnOn6j2J6z6Q3tP3R-87" value="N" style="text;html=1;align=center;verticalAlign=middle;resizable=0;points=[];autosize=1;strokeColor=none;fillColor=none;" parent="1" vertex="1">
          <mxGeometry x="112.12" y="3174.77" width="30" height="30" as="geometry" />
        </mxCell>
        <mxCell id="NjGtnOn6j2J6z6Q3tP3R-88" value="N" style="text;html=1;align=center;verticalAlign=middle;resizable=0;points=[];autosize=1;strokeColor=none;fillColor=none;" parent="1" vertex="1">
          <mxGeometry x="112.12" y="3583.95" width="30" height="30" as="geometry" />
        </mxCell>
        <mxCell id="NjGtnOn6j2J6z6Q3tP3R-89" value="" style="endArrow=none;html=1;rounded=0;exitX=0.5;exitY=0;exitDx=0;exitDy=0;entryX=0;entryY=0.5;entryDx=0;entryDy=0;" parent="1" source="NjGtnOn6j2J6z6Q3tP3R-20" target="NjGtnOn6j2J6z6Q3tP3R-90" edge="1">
          <mxGeometry width="50" height="50" relative="1" as="geometry">
            <mxPoint x="70.5" y="3618.95" as="sourcePoint" />
            <mxPoint x="97.12" y="3557.26" as="targetPoint" />
          </mxGeometry>
        </mxCell>
        <mxCell id="NjGtnOn6j2J6z6Q3tP3R-90" value="category_id" style="ellipse;whiteSpace=wrap;html=1;rotation=-90;" parent="1" vertex="1">
          <mxGeometry x="64.62" y="3464.79" width="75" height="22.42" as="geometry" />
        </mxCell>
        <mxCell id="NjGtnOn6j2J6z6Q3tP3R-91" value="" style="endArrow=none;html=1;rounded=0;exitX=1;exitY=0;exitDx=0;exitDy=0;" parent="1" source="NjGtnOn6j2J6z6Q3tP3R-95" edge="1">
          <mxGeometry relative="1" as="geometry">
            <mxPoint x="-132.88" y="3602.87" as="sourcePoint" />
            <mxPoint x="27.119999999999997" y="3642.87" as="targetPoint" />
          </mxGeometry>
        </mxCell>
        <mxCell id="NjGtnOn6j2J6z6Q3tP3R-92" value="" style="endArrow=none;html=1;rounded=0;entryX=0;entryY=1;entryDx=0;entryDy=0;exitX=1;exitY=0;exitDx=0;exitDy=0;" parent="1" source="NjGtnOn6j2J6z6Q3tP3R-93" target="NjGtnOn6j2J6z6Q3tP3R-20" edge="1">
          <mxGeometry relative="1" as="geometry">
            <mxPoint x="-229.12" y="3802" as="sourcePoint" />
            <mxPoint x="-82.88" y="3727.76" as="targetPoint" />
          </mxGeometry>
        </mxCell>
        <mxCell id="NjGtnOn6j2J6z6Q3tP3R-93" value="" style="ellipse;whiteSpace=wrap;html=1;aspect=fixed;" parent="1" vertex="1">
          <mxGeometry x="-182.53" y="3781.19" width="23.93" height="23.93" as="geometry" />
        </mxCell>
        <mxCell id="NjGtnOn6j2J6z6Q3tP3R-94" value="Non- premium" style="rounded=0;whiteSpace=wrap;html=1;" parent="1" vertex="1">
          <mxGeometry x="-282.88" y="3805.84" width="120" height="30" as="geometry" />
        </mxCell>
        <mxCell id="NjGtnOn6j2J6z6Q3tP3R-95" value="" style="ellipse;whiteSpace=wrap;html=1;aspect=fixed;" parent="1" vertex="1">
          <mxGeometry x="-202.88" y="3675.26" width="20" height="20" as="geometry" />
        </mxCell>
        <mxCell id="NjGtnOn6j2J6z6Q3tP3R-96" value="premium" style="rounded=0;whiteSpace=wrap;html=1;" parent="1" vertex="1">
          <mxGeometry x="-252.88" y="3695.26" width="120" height="30" as="geometry" />
        </mxCell>
        <mxCell id="NjGtnOn6j2J6z6Q3tP3R-97" value="" style="endArrow=none;html=1;rounded=0;" parent="1" edge="1">
          <mxGeometry width="50" height="50" relative="1" as="geometry">
            <mxPoint x="37.12" y="3163.66" as="sourcePoint" />
            <mxPoint x="57.12" y="3163.66" as="targetPoint" />
          </mxGeometry>
        </mxCell>
        <mxCell id="NjGtnOn6j2J6z6Q3tP3R-98" value="" style="endArrow=none;html=1;rounded=0;" parent="1" edge="1">
          <mxGeometry width="50" height="50" relative="1" as="geometry">
            <mxPoint x="-202.88" y="3149.19" as="sourcePoint" />
            <mxPoint x="57.12" y="3149.29" as="targetPoint" />
          </mxGeometry>
        </mxCell>
        <mxCell id="NjGtnOn6j2J6z6Q3tP3R-99" value="Makes" style="rhombus;whiteSpace=wrap;html=1;" parent="1" vertex="1">
          <mxGeometry x="-277.26" y="3125.09" width="80" height="50" as="geometry" />
        </mxCell>
        <mxCell id="NjGtnOn6j2J6z6Q3tP3R-100" value="" style="endArrow=none;html=1;rounded=0;entryX=0;entryY=0.5;entryDx=0;entryDy=0;" parent="1" target="NjGtnOn6j2J6z6Q3tP3R-99" edge="1">
          <mxGeometry width="50" height="50" relative="1" as="geometry">
            <mxPoint x="-512.88" y="3151.19" as="sourcePoint" />
            <mxPoint x="-287.2600000000001" y="3149.9" as="targetPoint" />
          </mxGeometry>
        </mxCell>
        <mxCell id="NjGtnOn6j2J6z6Q3tP3R-101" value="" style="endArrow=none;html=1;rounded=0;exitX=0.125;exitY=-0.1;exitDx=0;exitDy=0;exitPerimeter=0;" parent="1" edge="1">
          <mxGeometry width="50" height="50" relative="1" as="geometry">
            <mxPoint x="-510.38" y="3350.61" as="sourcePoint" />
            <mxPoint x="-512.88" y="3151.19" as="targetPoint" />
          </mxGeometry>
        </mxCell>
        <mxCell id="NjGtnOn6j2J6z6Q3tP3R-102" value="Payment" style="rounded=0;whiteSpace=wrap;html=1;" parent="1" vertex="1">
          <mxGeometry x="-562.88" y="3346.54" width="100" height="40" as="geometry" />
        </mxCell>
        <mxCell id="NjGtnOn6j2J6z6Q3tP3R-103" value="" style="endArrow=none;html=1;rounded=0;entryX=0.5;entryY=1;entryDx=0;entryDy=0;exitX=0.639;exitY=0.181;exitDx=0;exitDy=0;exitPerimeter=0;" parent="1" source="NjGtnOn6j2J6z6Q3tP3R-106" target="NjGtnOn6j2J6z6Q3tP3R-102" edge="1">
          <mxGeometry width="50" height="50" relative="1" as="geometry">
            <mxPoint x="-512.88" y="3558.39" as="sourcePoint" />
            <mxPoint x="-512.88" y="3490.32" as="targetPoint" />
          </mxGeometry>
        </mxCell>
        <mxCell id="NjGtnOn6j2J6z6Q3tP3R-104" value="1" style="text;html=1;align=center;verticalAlign=middle;resizable=0;points=[];autosize=1;strokeColor=none;fillColor=none;" parent="1" vertex="1">
          <mxGeometry x="22.119999999999997" y="3119.19" width="30" height="30" as="geometry" />
        </mxCell>
        <mxCell id="NjGtnOn6j2J6z6Q3tP3R-105" value="N" style="text;html=1;align=center;verticalAlign=middle;resizable=0;points=[];autosize=1;strokeColor=none;fillColor=none;" parent="1" vertex="1">
          <mxGeometry x="-518.7900000000001" y="3301.66" width="30" height="30" as="geometry" />
        </mxCell>
        <mxCell id="NjGtnOn6j2J6z6Q3tP3R-106" value="payment premium job" style="shape=ext;margin=3;double=1;whiteSpace=wrap;html=1;align=center;" parent="1" vertex="1">
          <mxGeometry x="-588.7900000000001" y="3685.26" width="100" height="40" as="geometry" />
        </mxCell>
        <mxCell id="NjGtnOn6j2J6z6Q3tP3R-107" value="N" style="text;html=1;align=center;verticalAlign=middle;resizable=0;points=[];autosize=1;strokeColor=none;fillColor=none;" parent="1" vertex="1">
          <mxGeometry x="-282.88" y="3665.26" width="30" height="30" as="geometry" />
        </mxCell>
        <mxCell id="NjGtnOn6j2J6z6Q3tP3R-108" value="payment_id" style="ellipse;whiteSpace=wrap;html=1;rotation=-85;" parent="1" vertex="1">
          <mxGeometry x="-498.85" y="3198.69" width="75.51" height="27.34" as="geometry" />
        </mxCell>
        <mxCell id="NjGtnOn6j2J6z6Q3tP3R-109" value="user id" style="ellipse;whiteSpace=wrap;html=1;rotation=75;" parent="1" vertex="1">
          <mxGeometry x="-572.15" y="3178.55" width="60" height="26.22" as="geometry" />
        </mxCell>
        <mxCell id="NjGtnOn6j2J6z6Q3tP3R-110" value="amount" style="ellipse;whiteSpace=wrap;html=1;rotation=60;" parent="1" vertex="1">
          <mxGeometry x="-610.68" y="3197.36" width="70" height="22.58" as="geometry" />
        </mxCell>
        <mxCell id="NjGtnOn6j2J6z6Q3tP3R-111" value="" style="endArrow=none;html=1;rounded=0;exitX=0.273;exitY=-0.013;exitDx=0;exitDy=0;exitPerimeter=0;entryX=1;entryY=0.5;entryDx=0;entryDy=0;" parent="1" source="NjGtnOn6j2J6z6Q3tP3R-102" target="NjGtnOn6j2J6z6Q3tP3R-110" edge="1">
          <mxGeometry width="50" height="50" relative="1" as="geometry">
            <mxPoint x="-537.88" y="3343.61" as="sourcePoint" />
            <mxPoint x="-547.88" y="3314.6800000000003" as="targetPoint" />
          </mxGeometry>
        </mxCell>
        <mxCell id="NjGtnOn6j2J6z6Q3tP3R-112" value="transaction id" style="ellipse;whiteSpace=wrap;html=1;direction=west;rotation=60;" parent="1" vertex="1">
          <mxGeometry x="-642.15" y="3211.99" width="70" height="30" as="geometry" />
        </mxCell>
        <mxCell id="NjGtnOn6j2J6z6Q3tP3R-113" value="mobile_no" style="ellipse;whiteSpace=wrap;html=1;rotation=50;" parent="1" vertex="1">
          <mxGeometry x="-662.15" y="3237.7" width="60" height="22.42" as="geometry" />
        </mxCell>
        <mxCell id="NjGtnOn6j2J6z6Q3tP3R-114" value="" style="endArrow=none;html=1;rounded=0;exitX=0.365;exitY=0.02;exitDx=0;exitDy=0;entryX=0;entryY=0;entryDx=0;entryDy=0;exitPerimeter=0;" parent="1" source="NjGtnOn6j2J6z6Q3tP3R-106" target="NjGtnOn6j2J6z6Q3tP3R-115" edge="1">
          <mxGeometry width="50" height="50" relative="1" as="geometry">
            <mxPoint x="-549.75" y="3613.8500000000004" as="sourcePoint" />
            <mxPoint x="-621.82" y="3568.5" as="targetPoint" />
          </mxGeometry>
        </mxCell>
        <mxCell id="NjGtnOn6j2J6z6Q3tP3R-115" value="payment premium id" style="ellipse;whiteSpace=wrap;html=1;direction=west;rotation=60;" parent="1" vertex="1">
          <mxGeometry x="-667.9399999999999" y="3502.63" width="121.57" height="30" as="geometry" />
        </mxCell>
        <mxCell id="NjGtnOn6j2J6z6Q3tP3R-116" value="" style="endArrow=none;html=1;rounded=0;exitX=0.359;exitY=0.005;exitDx=0;exitDy=0;entryX=0;entryY=0;entryDx=0;entryDy=0;exitPerimeter=0;" parent="1" source="NjGtnOn6j2J6z6Q3tP3R-106" target="NjGtnOn6j2J6z6Q3tP3R-117" edge="1">
          <mxGeometry width="50" height="50" relative="1" as="geometry">
            <mxPoint x="-549.62" y="3613.17" as="sourcePoint" />
            <mxPoint x="-666.69" y="3594.4900000000002" as="targetPoint" />
          </mxGeometry>
        </mxCell>
        <mxCell id="NjGtnOn6j2J6z6Q3tP3R-117" value="user_id" style="ellipse;whiteSpace=wrap;html=1;direction=west;rotation=45;" parent="1" vertex="1">
          <mxGeometry x="-670.68" y="3532.63" width="60" height="30" as="geometry" />
        </mxCell>
        <mxCell id="NjGtnOn6j2J6z6Q3tP3R-118" value="" style="endArrow=none;html=1;rounded=0;exitX=1;exitY=0;exitDx=0;exitDy=0;entryX=0.25;entryY=0;entryDx=0;entryDy=0;" parent="1" source="NjGtnOn6j2J6z6Q3tP3R-113" target="NjGtnOn6j2J6z6Q3tP3R-102" edge="1">
          <mxGeometry width="50" height="50" relative="1" as="geometry">
            <mxPoint x="-527.88" y="3353.61" as="sourcePoint" />
            <mxPoint x="-537.88" y="3324.6800000000003" as="targetPoint" />
          </mxGeometry>
        </mxCell>
        <mxCell id="NjGtnOn6j2J6z6Q3tP3R-119" value="reference&lt;div&gt;ID&lt;/div&gt;" style="ellipse;whiteSpace=wrap;html=1;rotation=-80;" parent="1" vertex="1">
          <mxGeometry x="-457.88000000000005" y="3194.91" width="76.76" height="34.9" as="geometry" />
        </mxCell>
        <mxCell id="NjGtnOn6j2J6z6Q3tP3R-120" value="" style="endArrow=none;html=1;rounded=0;exitX=0.406;exitY=-0.019;exitDx=0;exitDy=0;exitPerimeter=0;entryX=0;entryY=0.5;entryDx=0;entryDy=0;" parent="1" source="NjGtnOn6j2J6z6Q3tP3R-106" target="NjGtnOn6j2J6z6Q3tP3R-121" edge="1">
          <mxGeometry width="50" height="50" relative="1" as="geometry">
            <mxPoint x="-539.7499999999999" y="3623.8500000000004" as="sourcePoint" />
            <mxPoint x="-566.82" y="3578.17" as="targetPoint" />
          </mxGeometry>
        </mxCell>
        <mxCell id="NjGtnOn6j2J6z6Q3tP3R-121" value="job id" style="ellipse;whiteSpace=wrap;html=1;direction=west;rotation=75;" parent="1" vertex="1">
          <mxGeometry x="-588.7900000000001" y="3541.19" width="65" height="30" as="geometry" />
        </mxCell>
        <mxCell id="NjGtnOn6j2J6z6Q3tP3R-122" value="" style="endArrow=none;html=1;rounded=0;entryX=0;entryY=1;entryDx=0;entryDy=0;exitX=0.75;exitY=0;exitDx=0;exitDy=0;" parent="1" source="NjGtnOn6j2J6z6Q3tP3R-106" target="NjGtnOn6j2J6z6Q3tP3R-123" edge="1">
          <mxGeometry width="50" height="50" relative="1" as="geometry">
            <mxPoint x="-502.88" y="3611.19" as="sourcePoint" />
            <mxPoint x="-496.82000000000005" y="3585.17" as="targetPoint" />
          </mxGeometry>
        </mxCell>
        <mxCell id="NjGtnOn6j2J6z6Q3tP3R-123" value="created at" style="ellipse;whiteSpace=wrap;html=1;rotation=-75;" parent="1" vertex="1">
          <mxGeometry x="-512.15" y="3518.23" width="76.76" height="23.56" as="geometry" />
        </mxCell>
        <mxCell id="NjGtnOn6j2J6z6Q3tP3R-124" value="end date" style="ellipse;whiteSpace=wrap;html=1;rotation=-60;" parent="1" vertex="1">
          <mxGeometry x="-488.7900000000001" y="3544.75" width="76.76" height="26.44" as="geometry" />
        </mxCell>
        <mxCell id="NjGtnOn6j2J6z6Q3tP3R-125" value="" style="endArrow=none;html=1;rounded=0;exitX=0.75;exitY=0;exitDx=0;exitDy=0;entryX=0;entryY=0.5;entryDx=0;entryDy=0;" parent="1" source="NjGtnOn6j2J6z6Q3tP3R-106" target="NjGtnOn6j2J6z6Q3tP3R-124" edge="1">
          <mxGeometry width="50" height="50" relative="1" as="geometry">
            <mxPoint x="-506.81999999999994" y="3623.9500000000003" as="sourcePoint" />
            <mxPoint x="-486.82000000000005" y="3595.17" as="targetPoint" />
          </mxGeometry>
        </mxCell>
        <mxCell id="NjGtnOn6j2J6z6Q3tP3R-126" value="saved_job_Id" style="ellipse;whiteSpace=wrap;html=1;rotation=-45;" parent="1" vertex="1">
          <mxGeometry x="471.61" y="3286.8900000000003" width="78.9" height="25.79" as="geometry" />
        </mxCell>
        <mxCell id="NjGtnOn6j2J6z6Q3tP3R-127" value="" style="endArrow=none;html=1;rounded=0;entryX=0;entryY=0;entryDx=0;entryDy=0;exitX=0.5;exitY=0;exitDx=0;exitDy=0;" parent="1" source="NjGtnOn6j2J6z6Q3tP3R-71" target="NjGtnOn6j2J6z6Q3tP3R-126" edge="1">
          <mxGeometry width="50" height="50" relative="1" as="geometry">
            <mxPoint x="443.12" y="3351.19" as="sourcePoint" />
            <mxPoint x="498.07126265847467" y="3331.1937373415253" as="targetPoint" />
          </mxGeometry>
        </mxCell>
        <mxCell id="NjGtnOn6j2J6z6Q3tP3R-128" value="job_id" style="ellipse;whiteSpace=wrap;html=1;rotation=-60;" parent="1" vertex="1">
          <mxGeometry x="350.22999999999996" y="3233.73" width="67.59" height="38.79" as="geometry" />
        </mxCell>
        <mxCell id="NjGtnOn6j2J6z6Q3tP3R-129" value="" style="endArrow=none;html=1;rounded=0;entryX=0;entryY=1;entryDx=0;entryDy=0;exitX=0.5;exitY=0;exitDx=0;exitDy=0;" parent="1" source="NjGtnOn6j2J6z6Q3tP3R-71" target="NjGtnOn6j2J6z6Q3tP3R-128" edge="1">
          <mxGeometry width="50" height="50" relative="1" as="geometry">
            <mxPoint x="412.82" y="3333.52" as="sourcePoint" />
            <mxPoint x="417.82" y="3291.45" as="targetPoint" />
          </mxGeometry>
        </mxCell>
        <mxCell id="NjGtnOn6j2J6z6Q3tP3R-130" value="created_at" style="ellipse;whiteSpace=wrap;html=1;direction=west;rotation=-75;" parent="1" vertex="1">
          <mxGeometry x="67.12" y="3858.53" width="60" height="30" as="geometry" />
        </mxCell>
        <mxCell id="NjGtnOn6j2J6z6Q3tP3R-131" value="" style="endArrow=none;html=1;rounded=0;entryX=0.5;entryY=0;entryDx=0;entryDy=0;exitX=0.819;exitY=0.959;exitDx=0;exitDy=0;exitPerimeter=0;" parent="1" source="NjGtnOn6j2J6z6Q3tP3R-84" edge="1">
          <mxGeometry width="50" height="50" relative="1" as="geometry">
            <mxPoint x="82.25000000000023" y="3995.8" as="sourcePoint" />
            <mxPoint x="86.36888739433641" y="3898.952285676538" as="targetPoint" />
          </mxGeometry>
        </mxCell>
        <mxCell id="NjGtnOn6j2J6z6Q3tP3R-132" value="descripion" style="ellipse;whiteSpace=wrap;html=1;direction=west;rotation=-60;" parent="1" vertex="1">
          <mxGeometry x="562.12" y="3757.26" width="60" height="30" as="geometry" />
        </mxCell>
        <mxCell id="NjGtnOn6j2J6z6Q3tP3R-133" value="" style="endArrow=none;html=1;rounded=0;entryX=1;entryY=0.5;entryDx=0;entryDy=0;exitX=0.5;exitY=0;exitDx=0;exitDy=0;" parent="1" target="NjGtnOn6j2J6z6Q3tP3R-132" edge="1">
          <mxGeometry width="50" height="50" relative="1" as="geometry">
            <mxPoint x="542.12" y="3907.7400000000002" as="sourcePoint" />
            <mxPoint x="511.12" y="3838.53" as="targetPoint" />
          </mxGeometry>
        </mxCell>
        <mxCell id="NjGtnOn6j2J6z6Q3tP3R-134" value="" style="endArrow=none;html=1;rounded=0;exitX=0.5;exitY=0;exitDx=0;exitDy=0;" parent="1" source="NjGtnOn6j2J6z6Q3tP3R-1" edge="1">
          <mxGeometry width="50" height="50" relative="1" as="geometry">
            <mxPoint x="160.12" y="2986.19" as="sourcePoint" />
            <mxPoint x="160.12" y="2929.92" as="targetPoint" />
          </mxGeometry>
        </mxCell>
        <mxCell id="NjGtnOn6j2J6z6Q3tP3R-135" value="login status" style="ellipse;whiteSpace=wrap;html=1;rotation=-75;" parent="1" vertex="1">
          <mxGeometry x="134.42000000000002" y="2886.38" width="69.99" height="25.86" as="geometry" />
        </mxCell>
        <mxCell id="NjGtnOn6j2J6z6Q3tP3R-136" value="" style="endArrow=none;html=1;rounded=0;exitX=0.525;exitY=0.007;exitDx=0;exitDy=0;entryX=0;entryY=0.5;entryDx=0;entryDy=0;exitPerimeter=0;" parent="1" source="NjGtnOn6j2J6z6Q3tP3R-1" target="NjGtnOn6j2J6z6Q3tP3R-137" edge="1">
          <mxGeometry width="50" height="50" relative="1" as="geometry">
            <mxPoint x="140.25" y="2985.78" as="sourcePoint" />
            <mxPoint x="77.12" y="2939.92" as="targetPoint" />
          </mxGeometry>
        </mxCell>
        <mxCell id="NjGtnOn6j2J6z6Q3tP3R-137" value="created_at" style="ellipse;whiteSpace=wrap;html=1;rotation=-130;" parent="1" vertex="1">
          <mxGeometry x="10.879999999999995" y="2904.45" width="73.25" height="23.66" as="geometry" />
        </mxCell>
        <mxCell id="NjGtnOn6j2J6z6Q3tP3R-138" value="" style="endArrow=none;html=1;rounded=0;exitX=0.52;exitY=0.013;exitDx=0;exitDy=0;exitPerimeter=0;" parent="1" source="NjGtnOn6j2J6z6Q3tP3R-1" edge="1">
          <mxGeometry width="50" height="50" relative="1" as="geometry">
            <mxPoint x="138.38" y="2985.7799999999997" as="sourcePoint" />
            <mxPoint x="37.12" y="2949.92" as="targetPoint" />
          </mxGeometry>
        </mxCell>
        <mxCell id="NjGtnOn6j2J6z6Q3tP3R-139" value="updated_at" style="ellipse;whiteSpace=wrap;html=1;rotation=-130;" parent="1" vertex="1">
          <mxGeometry x="-21.130000000000003" y="2912.24" width="73.25" height="23.66" as="geometry" />
        </mxCell>
        <mxCell id="NjGtnOn6j2J6z6Q3tP3R-142" value="" style="endArrow=none;html=1;rounded=0;exitX=0.75;exitY=0;exitDx=0;exitDy=0;entryX=0;entryY=0.5;entryDx=0;entryDy=0;" parent="1" source="NjGtnOn6j2J6z6Q3tP3R-32" target="NjGtnOn6j2J6z6Q3tP3R-143" edge="1">
          <mxGeometry width="50" height="50" relative="1" as="geometry">
            <mxPoint x="492.11999999999995" y="3027.05" as="sourcePoint" />
            <mxPoint x="412.12" y="2909" as="targetPoint" />
          </mxGeometry>
        </mxCell>
        <mxCell id="NjGtnOn6j2J6z6Q3tP3R-143" value="created&lt;div&gt;at&lt;/div&gt;" style="ellipse;whiteSpace=wrap;html=1;rotation=-45;" parent="1" vertex="1">
          <mxGeometry x="354.03" y="2942.88" width="60" height="31.81" as="geometry" />
        </mxCell>
        <mxCell id="NjGtnOn6j2J6z6Q3tP3R-144" value="updated&lt;div&gt;at&lt;/div&gt;" style="ellipse;whiteSpace=wrap;html=1;rotation=-30;" parent="1" vertex="1">
          <mxGeometry x="347.1199999999999" y="3000" width="60" height="35.64" as="geometry" />
        </mxCell>
        <mxCell id="NjGtnOn6j2J6z6Q3tP3R-145" value="" style="endArrow=none;html=1;rounded=0;entryX=0;entryY=0;entryDx=0;entryDy=0;exitX=0.75;exitY=0;exitDx=0;exitDy=0;" parent="1" source="NjGtnOn6j2J6z6Q3tP3R-32" target="NjGtnOn6j2J6z6Q3tP3R-144" edge="1">
          <mxGeometry width="50" height="50" relative="1" as="geometry">
            <mxPoint x="537.12" y="3070" as="sourcePoint" />
            <mxPoint x="457.11999999999995" y="2910.05" as="targetPoint" />
          </mxGeometry>
        </mxCell>
        <mxCell id="NjGtnOn6j2J6z6Q3tP3R-146" value="" style="endArrow=none;html=1;rounded=0;" parent="1" edge="1">
          <mxGeometry width="50" height="50" relative="1" as="geometry">
            <mxPoint x="696.82" y="3351.19" as="sourcePoint" />
            <mxPoint x="697.12" y="3631.19" as="targetPoint" />
          </mxGeometry>
        </mxCell>
        <mxCell id="NjGtnOn6j2J6z6Q3tP3R-147" value="user_id" style="ellipse;whiteSpace=wrap;html=1;rotation=60;" parent="1" vertex="1">
          <mxGeometry x="-37.82" y="3243.76" width="64.94" height="18.73" as="geometry" />
        </mxCell>
        <mxCell id="NjGtnOn6j2J6z6Q3tP3R-148" value="" style="endArrow=none;html=1;rounded=0;fontSize=12;startSize=8;endSize=8;curved=1;entryX=1;entryY=0.5;entryDx=0;entryDy=0;exitX=0.474;exitY=-0.012;exitDx=0;exitDy=0;exitPerimeter=0;" parent="1" source="NjGtnOn6j2J6z6Q3tP3R-38" target="NjGtnOn6j2J6z6Q3tP3R-147" edge="1">
          <mxGeometry width="50" height="50" relative="1" as="geometry">
            <mxPoint x="35.12" y="3351.19" as="sourcePoint" />
            <mxPoint x="6.119999999999997" y="3322.19" as="targetPoint" />
          </mxGeometry>
        </mxCell>
        <mxCell id="NjGtnOn6j2J6z6Q3tP3R-149" value="job_id" style="ellipse;whiteSpace=wrap;html=1;rotation=90;" parent="1" vertex="1">
          <mxGeometry x="32.12" y="3250.87" width="64.94" height="18.73" as="geometry" />
        </mxCell>
        <mxCell id="NjGtnOn6j2J6z6Q3tP3R-150" value="created_at" style="ellipse;whiteSpace=wrap;html=1;rotation=90;" parent="1" vertex="1">
          <mxGeometry x="61.38999999999999" y="3250.08" width="64.94" height="20.32" as="geometry" />
        </mxCell>
        <mxCell id="NjGtnOn6j2J6z6Q3tP3R-151" value="updated_at" style="ellipse;whiteSpace=wrap;html=1;rotation=90;" parent="1" vertex="1">
          <mxGeometry x="87.86000000000001" y="3246.38" width="76.04" height="29.11" as="geometry" />
        </mxCell>
        <mxCell id="NjGtnOn6j2J6z6Q3tP3R-152" value="" style="endArrow=none;html=1;rounded=0;fontSize=12;startSize=8;endSize=8;curved=1;entryX=1;entryY=0.5;entryDx=0;entryDy=0;exitX=0.524;exitY=-0.006;exitDx=0;exitDy=0;exitPerimeter=0;" parent="1" source="NjGtnOn6j2J6z6Q3tP3R-38" target="NjGtnOn6j2J6z6Q3tP3R-149" edge="1">
          <mxGeometry width="50" height="50" relative="1" as="geometry">
            <mxPoint x="37.12" y="3351.19" as="sourcePoint" />
            <mxPoint x="21.119999999999997" y="3291.19" as="targetPoint" />
          </mxGeometry>
        </mxCell>
        <mxCell id="NjGtnOn6j2J6z6Q3tP3R-153" value="" style="endArrow=none;html=1;rounded=0;fontSize=12;startSize=8;endSize=8;curved=1;entryX=1;entryY=0.5;entryDx=0;entryDy=0;exitX=0.531;exitY=-0.006;exitDx=0;exitDy=0;exitPerimeter=0;" parent="1" source="NjGtnOn6j2J6z6Q3tP3R-38" edge="1">
          <mxGeometry width="50" height="50" relative="1" as="geometry">
            <mxPoint x="57.12" y="3346.19" as="sourcePoint" />
            <mxPoint x="91.12" y="3287.8500000000004" as="targetPoint" />
          </mxGeometry>
        </mxCell>
        <mxCell id="NjGtnOn6j2J6z6Q3tP3R-154" value="" style="endArrow=none;html=1;rounded=0;fontSize=12;startSize=8;endSize=8;curved=1;entryX=1;entryY=0.5;entryDx=0;entryDy=0;exitX=0.538;exitY=0.011;exitDx=0;exitDy=0;exitPerimeter=0;" parent="1" source="NjGtnOn6j2J6z6Q3tP3R-38" target="NjGtnOn6j2J6z6Q3tP3R-151" edge="1">
          <mxGeometry width="50" height="50" relative="1" as="geometry">
            <mxPoint x="77.12" y="3351.19" as="sourcePoint" />
            <mxPoint x="101.12" y="3297.8500000000004" as="targetPoint" />
          </mxGeometry>
        </mxCell>
        <mxCell id="NjGtnOn6j2J6z6Q3tP3R-155" value="created_at" style="ellipse;whiteSpace=wrap;html=1;rotation=-60;" parent="1" vertex="1">
          <mxGeometry x="299.53" y="3233.73" width="67.59" height="30.35" as="geometry" />
        </mxCell>
        <mxCell id="NjGtnOn6j2J6z6Q3tP3R-156" value="updated_at" style="ellipse;whiteSpace=wrap;html=1;rotation=-60;" parent="1" vertex="1">
          <mxGeometry x="508.80999999999995" y="3300.84" width="67.59" height="30.35" as="geometry" />
        </mxCell>
        <mxCell id="NjGtnOn6j2J6z6Q3tP3R-157" value="" style="endArrow=none;html=1;rounded=0;entryX=0;entryY=0;entryDx=0;entryDy=0;exitX=0.5;exitY=0;exitDx=0;exitDy=0;" parent="1" target="NjGtnOn6j2J6z6Q3tP3R-156" edge="1">
          <mxGeometry width="50" height="50" relative="1" as="geometry">
            <mxPoint x="450.91" y="3367.6800000000003" as="sourcePoint" />
            <mxPoint x="525.91" y="3312.6800000000003" as="targetPoint" />
          </mxGeometry>
        </mxCell>
        <mxCell id="NjGtnOn6j2J6z6Q3tP3R-158" value="" style="endArrow=none;html=1;rounded=0;exitX=0.89;exitY=1.176;exitDx=0;exitDy=0;entryX=1;entryY=0.5;entryDx=0;entryDy=0;exitPerimeter=0;" parent="1" source="NjGtnOn6j2J6z6Q3tP3R-82" target="NjGtnOn6j2J6z6Q3tP3R-159" edge="1">
          <mxGeometry width="50" height="50" relative="1" as="geometry">
            <mxPoint x="552.12" y="3917.7400000000002" as="sourcePoint" />
            <mxPoint x="597.12" y="3841.19" as="targetPoint" />
          </mxGeometry>
        </mxCell>
        <mxCell id="NjGtnOn6j2J6z6Q3tP3R-159" value="created_at" style="ellipse;whiteSpace=wrap;html=1;direction=west;rotation=-60;" parent="1" vertex="1">
          <mxGeometry x="583.11" y="3782.41" width="71.21" height="30" as="geometry" />
        </mxCell>
        <mxCell id="NjGtnOn6j2J6z6Q3tP3R-160" value="updated_at" style="ellipse;whiteSpace=wrap;html=1;direction=west;rotation=-45;" parent="1" vertex="1">
          <mxGeometry x="622.12" y="3807.6800000000003" width="66.81" height="27.31" as="geometry" />
        </mxCell>
        <mxCell id="NjGtnOn6j2J6z6Q3tP3R-161" value="" style="endArrow=none;html=1;rounded=0;entryX=1;entryY=0.5;entryDx=0;entryDy=0;" parent="1" target="NjGtnOn6j2J6z6Q3tP3R-160" edge="1">
          <mxGeometry width="50" height="50" relative="1" as="geometry">
            <mxPoint x="564.12" y="3911.19" as="sourcePoint" />
            <mxPoint x="611.12" y="3838.19" as="targetPoint" />
          </mxGeometry>
        </mxCell>
        <mxCell id="NjGtnOn6j2J6z6Q3tP3R-163" value="job_id" style="ellipse;whiteSpace=wrap;html=1;rotation=-75;" parent="1" vertex="1">
          <mxGeometry x="157.12" y="3485.85" width="60" height="20" as="geometry" />
        </mxCell>
        <mxCell id="NjGtnOn6j2J6z6Q3tP3R-165" value="" style="endArrow=none;html=1;rounded=0;entryX=0;entryY=0;entryDx=0;entryDy=0;exitX=0.5;exitY=0;exitDx=0;exitDy=0;" parent="1" source="NjGtnOn6j2J6z6Q3tP3R-20" target="NjGtnOn6j2J6z6Q3tP3R-163" edge="1">
          <mxGeometry width="50" height="50" relative="1" as="geometry">
            <mxPoint x="90.12" y="3629.19" as="sourcePoint" />
            <mxPoint x="159.12" y="3523.19" as="targetPoint" />
          </mxGeometry>
        </mxCell>
        <mxCell id="NjGtnOn6j2J6z6Q3tP3R-166" value="created_at" style="ellipse;whiteSpace=wrap;html=1;direction=west;rotation=75;" parent="1" vertex="1">
          <mxGeometry x="-69.16999999999999" y="3454.54" width="70" height="15.99" as="geometry" />
        </mxCell>
        <mxCell id="NjGtnOn6j2J6z6Q3tP3R-167" value="updated_at" style="ellipse;whiteSpace=wrap;html=1;direction=west;rotation=75;" parent="1" vertex="1">
          <mxGeometry x="-95.25999999999999" y="3461.5" width="75" height="26.44" as="geometry" />
        </mxCell>
        <mxCell id="NjGtnOn6j2J6z6Q3tP3R-168" value="" style="endArrow=none;html=1;rounded=0;exitX=0.25;exitY=0;exitDx=0;exitDy=0;entryX=0;entryY=0.5;entryDx=0;entryDy=0;" parent="1" source="NjGtnOn6j2J6z6Q3tP3R-20" edge="1">
          <mxGeometry width="50" height="50" relative="1" as="geometry">
            <mxPoint x="20.9" y="3615.26" as="sourcePoint" />
            <mxPoint x="-26.1" y="3496.26" as="targetPoint" />
          </mxGeometry>
        </mxCell>
        <mxCell id="NjGtnOn6j2J6z6Q3tP3R-169" value="" style="endArrow=none;html=1;rounded=0;entryX=0;entryY=0.5;entryDx=0;entryDy=0;exitX=0.25;exitY=0;exitDx=0;exitDy=0;" parent="1" source="NjGtnOn6j2J6z6Q3tP3R-20" edge="1">
          <mxGeometry width="50" height="50" relative="1" as="geometry">
            <mxPoint x="37.12" y="3620.19" as="sourcePoint" />
            <mxPoint x="-45.11000000000001" y="3508.79" as="targetPoint" />
          </mxGeometry>
        </mxCell>
        <mxCell id="NjGtnOn6j2J6z6Q3tP3R-170" value="updated_at" style="ellipse;whiteSpace=wrap;html=1;direction=west;rotation=-75;" parent="1" vertex="1">
          <mxGeometry x="96.85" y="3868.46" width="74.79" height="30" as="geometry" />
        </mxCell>
        <mxCell id="NjGtnOn6j2J6z6Q3tP3R-171" value="" style="endArrow=none;html=1;rounded=0;entryX=1;entryY=0.5;entryDx=0;entryDy=0;exitX=0.882;exitY=0.032;exitDx=0;exitDy=0;exitPerimeter=0;" parent="1" source="NjGtnOn6j2J6z6Q3tP3R-54" target="NjGtnOn6j2J6z6Q3tP3R-170" edge="1">
          <mxGeometry width="50" height="50" relative="1" as="geometry">
            <mxPoint x="110.46000000000001" y="4008.84" as="sourcePoint" />
            <mxPoint x="119.70888739433641" y="3905.602285676538" as="targetPoint" />
          </mxGeometry>
        </mxCell>
        <mxCell id="NjGtnOn6j2J6z6Q3tP3R-172" value="" style="endArrow=none;html=1;rounded=0;entryX=0.5;entryY=0;entryDx=0;entryDy=0;exitX=1.052;exitY=0.969;exitDx=0;exitDy=0;exitPerimeter=0;" parent="1" source="NjGtnOn6j2J6z6Q3tP3R-84" edge="1">
          <mxGeometry width="50" height="50" relative="1" as="geometry">
            <mxPoint x="87.12" y="4011.19" as="sourcePoint" />
            <mxPoint x="157.1188873943364" y="3911.1922856765377" as="targetPoint" />
          </mxGeometry>
        </mxCell>
        <mxCell id="NjGtnOn6j2J6z6Q3tP3R-173" value="description" style="ellipse;whiteSpace=wrap;html=1;direction=west;rotation=-75;" parent="1" vertex="1">
          <mxGeometry x="134.42" y="3871.19" width="74.79" height="30" as="geometry" />
        </mxCell>
        <mxCell id="NjGtnOn6j2J6z6Q3tP3R-174" value="created_at" style="ellipse;whiteSpace=wrap;html=1;rotation=-80;" parent="1" vertex="1">
          <mxGeometry x="-419.36000000000007" y="3204.77" width="76.76" height="34.9" as="geometry" />
        </mxCell>
        <mxCell id="NjGtnOn6j2J6z6Q3tP3R-175" value="updated_at" style="ellipse;whiteSpace=wrap;html=1;rotation=-80;" parent="1" vertex="1">
          <mxGeometry x="-381.12000000000006" y="3215.9700000000003" width="76.76" height="34.9" as="geometry" />
        </mxCell>
        <mxCell id="NjGtnOn6j2J6z6Q3tP3R-176" value="" style="endArrow=none;html=1;rounded=0;entryX=0;entryY=0;entryDx=0;entryDy=0;exitX=0.603;exitY=0.029;exitDx=0;exitDy=0;exitPerimeter=0;" parent="1" source="NjGtnOn6j2J6z6Q3tP3R-102" target="NjGtnOn6j2J6z6Q3tP3R-108" edge="1">
          <mxGeometry width="50" height="50" relative="1" as="geometry">
            <mxPoint x="-491.88" y="3341.19" as="sourcePoint" />
            <mxPoint x="-466.88" y="3237.19" as="targetPoint" />
          </mxGeometry>
        </mxCell>
        <mxCell id="NjGtnOn6j2J6z6Q3tP3R-177" value="" style="endArrow=none;html=1;rounded=0;entryX=0;entryY=0;entryDx=0;entryDy=0;exitX=0.697;exitY=0.001;exitDx=0;exitDy=0;exitPerimeter=0;" parent="1" source="NjGtnOn6j2J6z6Q3tP3R-102" edge="1">
          <mxGeometry width="50" height="50" relative="1" as="geometry">
            <mxPoint x="-475.88" y="3331.19" as="sourcePoint" />
            <mxPoint x="-437.88" y="3235.19" as="targetPoint" />
          </mxGeometry>
        </mxCell>
        <mxCell id="NjGtnOn6j2J6z6Q3tP3R-178" value="" style="endArrow=none;html=1;rounded=0;exitX=0.75;exitY=0;exitDx=0;exitDy=0;" parent="1" source="NjGtnOn6j2J6z6Q3tP3R-102" target="NjGtnOn6j2J6z6Q3tP3R-174" edge="1">
          <mxGeometry width="50" height="50" relative="1" as="geometry">
            <mxPoint x="-482.88" y="3356.19" as="sourcePoint" />
            <mxPoint x="-427.88" y="3245.19" as="targetPoint" />
          </mxGeometry>
        </mxCell>
        <mxCell id="NjGtnOn6j2J6z6Q3tP3R-179" value="" style="endArrow=none;html=1;rounded=0;exitX=0.843;exitY=0.006;exitDx=0;exitDy=0;exitPerimeter=0;" parent="1" source="NjGtnOn6j2J6z6Q3tP3R-102" target="NjGtnOn6j2J6z6Q3tP3R-175" edge="1">
          <mxGeometry width="50" height="50" relative="1" as="geometry">
            <mxPoint x="-477.88" y="3356.19" as="sourcePoint" />
            <mxPoint x="-388.88" y="3253.19" as="targetPoint" />
          </mxGeometry>
        </mxCell>
        <mxCell id="NjGtnOn6j2J6z6Q3tP3R-180" value="" style="endArrow=none;html=1;rounded=0;exitX=0.25;exitY=0;exitDx=0;exitDy=0;" parent="1" source="NjGtnOn6j2J6z6Q3tP3R-102" target="NjGtnOn6j2J6z6Q3tP3R-112" edge="1">
          <mxGeometry width="50" height="50" relative="1" as="geometry">
            <mxPoint x="-525.88" y="3356.19" as="sourcePoint" />
            <mxPoint x="-544.88" y="3245.19" as="targetPoint" />
          </mxGeometry>
        </mxCell>
        <mxCell id="NjGtnOn6j2J6z6Q3tP3R-181" value="" style="endArrow=none;html=1;rounded=0;exitX=0.364;exitY=0;exitDx=0;exitDy=0;exitPerimeter=0;entryX=1;entryY=0.5;entryDx=0;entryDy=0;" parent="1" source="NjGtnOn6j2J6z6Q3tP3R-102" target="NjGtnOn6j2J6z6Q3tP3R-109" edge="1">
          <mxGeometry width="50" height="50" relative="1" as="geometry">
            <mxPoint x="-525.88" y="3356.19" as="sourcePoint" />
            <mxPoint x="-547.88" y="3249.19" as="targetPoint" />
          </mxGeometry>
        </mxCell>
        <mxCell id="NjGtnOn6j2J6z6Q3tP3R-182" value="start date" style="ellipse;whiteSpace=wrap;html=1;rotation=-80;" parent="1" vertex="1">
          <mxGeometry x="-539.64" y="3505.8500000000004" width="76.76" height="23.56" as="geometry" />
        </mxCell>
        <mxCell id="NjGtnOn6j2J6z6Q3tP3R-183" value="updated at" style="ellipse;whiteSpace=wrap;html=1;rotation=-50;" parent="1" vertex="1">
          <mxGeometry x="-465.87" y="3571.19" width="76.76" height="23.56" as="geometry" />
        </mxCell>
        <mxCell id="NjGtnOn6j2J6z6Q3tP3R-184" value="" style="endArrow=none;html=1;rounded=0;entryX=0;entryY=0.5;entryDx=0;entryDy=0;" parent="1" target="NjGtnOn6j2J6z6Q3tP3R-182" edge="1">
          <mxGeometry width="50" height="50" relative="1" as="geometry">
            <mxPoint x="-512.88" y="3681.19" as="sourcePoint" />
            <mxPoint x="-441.82" y="3523.9700000000003" as="targetPoint" />
          </mxGeometry>
        </mxCell>
        <mxCell id="NjGtnOn6j2J6z6Q3tP3R-185" value="" style="endArrow=none;html=1;rounded=0;entryX=0;entryY=0.5;entryDx=0;entryDy=0;" parent="1" target="NjGtnOn6j2J6z6Q3tP3R-183" edge="1">
          <mxGeometry width="50" height="50" relative="1" as="geometry">
            <mxPoint x="-512.88" y="3685.19" as="sourcePoint" />
            <mxPoint x="-410.82" y="3567.04" as="targetPoint" />
          </mxGeometry>
        </mxCell>
        <mxCell id="NjGtnOn6j2J6z6Q3tP3R-186" value="" style="endArrow=none;html=1;rounded=0;entryX=0;entryY=0.5;entryDx=0;entryDy=0;exitX=1;exitY=0.5;exitDx=0;exitDy=0;" parent="1" source="NjGtnOn6j2J6z6Q3tP3R-106" target="NjGtnOn6j2J6z6Q3tP3R-96" edge="1">
          <mxGeometry width="50" height="50" relative="1" as="geometry">
            <mxPoint x="-476.82000000000005" y="3637.9700000000003" as="sourcePoint" />
            <mxPoint x="-236.82" y="3653.23" as="targetPoint" />
          </mxGeometry>
        </mxCell>
        <mxCell id="NjGtnOn6j2J6z6Q3tP3R-187" value="application&lt;div&gt;limit&lt;/div&gt;" style="ellipse;whiteSpace=wrap;html=1;direction=west;rotation=60;" parent="1" vertex="1">
          <mxGeometry x="-160.26999999999998" y="3482.35" width="80" height="25.34" as="geometry" />
        </mxCell>
        <mxCell id="NjGtnOn6j2J6z6Q3tP3R-188" value="status" style="ellipse;whiteSpace=wrap;html=1;rotation=60;" parent="1" vertex="1">
          <mxGeometry x="-117.20000000000002" y="3470.5299999999997" width="60" height="20" as="geometry" />
        </mxCell>
        <mxCell id="NjGtnOn6j2J6z6Q3tP3R-189" value="" style="endArrow=none;html=1;rounded=0;entryX=0;entryY=0.5;entryDx=0;entryDy=0;exitX=0.25;exitY=0;exitDx=0;exitDy=0;" parent="1" source="NjGtnOn6j2J6z6Q3tP3R-20" edge="1">
          <mxGeometry width="50" height="50" relative="1" as="geometry">
            <mxPoint x="10.879999999999995" y="3618.95" as="sourcePoint" />
            <mxPoint x="-71.35" y="3507.55" as="targetPoint" />
          </mxGeometry>
        </mxCell>
        <mxCell id="NjGtnOn6j2J6z6Q3tP3R-190" value="N" style="text;html=1;align=center;verticalAlign=middle;resizable=0;points=[];autosize=1;strokeColor=none;fillColor=none;" parent="1" vertex="1">
          <mxGeometry x="-518.7900000000001" y="3386.54" width="30" height="30" as="geometry" />
        </mxCell>
        <mxCell id="NjGtnOn6j2J6z6Q3tP3R-191" value="" style="endArrow=none;html=1;rounded=0;entryX=0;entryY=0.5;entryDx=0;entryDy=0;exitX=0.25;exitY=0;exitDx=0;exitDy=0;" parent="1" source="NjGtnOn6j2J6z6Q3tP3R-20" target="NjGtnOn6j2J6z6Q3tP3R-187" edge="1">
          <mxGeometry width="50" height="50" relative="1" as="geometry">
            <mxPoint x="-3.6400000000000006" y="3635.26" as="sourcePoint" />
            <mxPoint x="-102.10999999999999" y="3523.62" as="targetPoint" />
          </mxGeometry>
        </mxCell>
        <mxCell id="NjGtnOn6j2J6z6Q3tP3R-192" value="" style="endArrow=none;html=1;rounded=0;entryX=0;entryY=1;entryDx=0;entryDy=0;exitX=0.5;exitY=0;exitDx=0;exitDy=0;" parent="1" source="NjGtnOn6j2J6z6Q3tP3R-71" edge="1">
          <mxGeometry width="50" height="50" relative="1" as="geometry">
            <mxPoint x="367.12" y="3352.3900000000003" as="sourcePoint" />
            <mxPoint x="340.12" y="3265.3900000000003" as="targetPoint" />
          </mxGeometry>
        </mxCell>
        <mxCell id="NjGtnOn6j2J6z6Q3tP3R-193" value="User_type" style="ellipse;whiteSpace=wrap;html=1;rotation=-115;" parent="1" vertex="1">
          <mxGeometry x="0.8299999999999912" y="3051.19" width="60" height="24.14" as="geometry" />
        </mxCell>
        <mxCell id="NjGtnOn6j2J6z6Q3tP3R-194" value="" style="endArrow=none;html=1;rounded=0;exitX=0.25;exitY=0;exitDx=0;exitDy=0;entryX=0;entryY=0.5;entryDx=0;entryDy=0;" parent="1" source="NjGtnOn6j2J6z6Q3tP3R-31" target="NjGtnOn6j2J6z6Q3tP3R-193" edge="1">
          <mxGeometry width="50" height="50" relative="1" as="geometry">
            <mxPoint x="172.12" y="3037.19" as="sourcePoint" />
            <mxPoint x="267.12" y="2961.19" as="targetPoint" />
          </mxGeometry>
        </mxCell>
        <mxCell id="NjGtnOn6j2J6z6Q3tP3R-195" value="" style="endArrow=none;html=1;rounded=0;" parent="1" edge="1">
          <mxGeometry width="50" height="50" relative="1" as="geometry">
            <mxPoint x="27.119999999999997" y="3637.19" as="sourcePoint" />
            <mxPoint x="-192.88" y="3631.19" as="targetPoint" />
          </mxGeometry>
        </mxCell>
        <mxCell id="NjGtnOn6j2J6z6Q3tP3R-196" value="application limit" style="rounded=0;whiteSpace=wrap;html=1;" parent="1" vertex="1">
          <mxGeometry x="-277.26" y="3613.95" width="90" height="30" as="geometry" />
        </mxCell>
        <mxCell id="NjGtnOn6j2J6z6Q3tP3R-197" value="" style="endArrow=none;html=1;rounded=0;exitX=0.5;exitY=0;exitDx=0;exitDy=0;" parent="1" edge="1">
          <mxGeometry width="50" height="50" relative="1" as="geometry">
            <mxPoint x="-232.60000000000002" y="3613.95" as="sourcePoint" />
            <mxPoint x="-272.88" y="3561.19" as="targetPoint" />
          </mxGeometry>
        </mxCell>
        <mxCell id="NjGtnOn6j2J6z6Q3tP3R-198" value="limit id" style="ellipse;whiteSpace=wrap;html=1;direction=west;rotation=60;" parent="1" vertex="1">
          <mxGeometry x="-332.88" y="3516.45" width="80" height="25.34" as="geometry" />
        </mxCell>
        <mxCell id="NjGtnOn6j2J6z6Q3tP3R-199" value="" style="endArrow=none;html=1;rounded=0;exitX=0.5;exitY=0;exitDx=0;exitDy=0;" parent="1" source="NjGtnOn6j2J6z6Q3tP3R-196" edge="1">
          <mxGeometry width="50" height="50" relative="1" as="geometry">
            <mxPoint x="-222.60000000000002" y="3623.95" as="sourcePoint" />
            <mxPoint x="-252.88" y="3531.19" as="targetPoint" />
          </mxGeometry>
        </mxCell>
        <mxCell id="NjGtnOn6j2J6z6Q3tP3R-200" value="" style="endArrow=none;html=1;rounded=0;exitX=0.5;exitY=0;exitDx=0;exitDy=0;entryX=0;entryY=0.5;entryDx=0;entryDy=0;" parent="1" source="NjGtnOn6j2J6z6Q3tP3R-196" target="NjGtnOn6j2J6z6Q3tP3R-202" edge="1">
          <mxGeometry width="50" height="50" relative="1" as="geometry">
            <mxPoint x="-221.88" y="3624.19" as="sourcePoint" />
            <mxPoint x="-232.88" y="3531.19" as="targetPoint" />
          </mxGeometry>
        </mxCell>
        <mxCell id="NjGtnOn6j2J6z6Q3tP3R-201" value="max application" style="ellipse;whiteSpace=wrap;html=1;direction=west;rotation=60;" parent="1" vertex="1">
          <mxGeometry x="-320.38" y="3483.61" width="90" height="25.34" as="geometry" />
        </mxCell>
        <mxCell id="NjGtnOn6j2J6z6Q3tP3R-202" value="user type" style="ellipse;whiteSpace=wrap;html=1;direction=west;rotation=75;" parent="1" vertex="1">
          <mxGeometry x="-277.26" y="3480.51" width="80" height="25.34" as="geometry" />
        </mxCell>
        <mxCell id="NjGtnOn6j2J6z6Q3tP3R-203" value="" style="endArrow=none;html=1;rounded=0;exitX=0.5;exitY=0;exitDx=0;exitDy=0;" parent="1" source="NjGtnOn6j2J6z6Q3tP3R-20" edge="1">
          <mxGeometry width="50" height="50" relative="1" as="geometry">
            <mxPoint x="72.12" y="3629" as="sourcePoint" />
            <mxPoint x="157.12" y="3480" as="targetPoint" />
          </mxGeometry>
        </mxCell>
        <mxCell id="NjGtnOn6j2J6z6Q3tP3R-204" value="user_id" style="ellipse;whiteSpace=wrap;html=1;rotation=-75;" parent="1" vertex="1">
          <mxGeometry x="134.62" y="3454.54" width="60" height="20" as="geometry" />
        </mxCell>
      </root>
    </mxGraphModel>
  </diagram>
</mxfile>
